<svg width="507" height="63" viewBox="0 0 507 63" fill="none" xmlns="http://www.w3.org/2000/svg">
<path d="M504.946 42.9587L506.127 47.5979C503.975 48.9587 501.56 49.6391 498.884 49.6391C496.259 49.6391 494.239 48.8041 492.822 47.1339C491.562 45.6494 490.932 42.835 490.932 38.6906V20.6907H486.681V15.402H490.932V10.8556L499.75 7.32983V15.402H505.103V20.6907H499.75V40.7319C499.75 42.8968 500.432 43.9793 501.797 43.9793C502.636 43.9793 503.686 43.6391 504.946 42.9587Z" fill="#333333"/>
<path d="M463.889 18.3713C467.09 15.8352 470.239 14.5671 473.336 14.5671C476.433 14.5671 478.716 15.5878 480.186 17.629C481.708 19.6084 482.469 22.1754 482.469 25.33V48.8042H473.73V26.629C473.73 24.464 473.494 22.8867 473.021 21.897C472.549 20.9073 471.578 20.4125 470.108 20.4125C468.691 20.4125 467.248 21.0001 465.778 22.1754V48.8042H456.96V15.4022H460.976L463.889 18.3713Z" fill="#333333"/>
<path d="M450.577 33.495H433.808C433.808 37.7011 434.201 40.6084 434.989 42.2166C435.776 43.763 437.009 44.5362 438.689 44.5362C441.523 44.5362 442.94 42.7115 442.94 39.062L450.183 39.2475C449.921 42.464 448.898 45.0001 447.113 46.8558C445.328 48.7114 442.206 49.6393 437.744 49.6393C433.335 49.6393 430.108 48.1857 428.061 45.2785C426.066 42.3712 425.069 37.9795 425.069 32.1032C425.069 20.4125 429.373 14.5671 437.98 14.5671C446.378 14.5671 450.577 20.5053 450.577 32.3816V33.495ZM442.074 28.3919C441.969 25.3609 441.602 23.1651 440.972 21.8042C440.395 20.3816 439.424 19.6702 438.059 19.6702C436.747 19.6702 435.776 20.2888 435.146 21.5259C434.569 22.7012 434.175 24.9898 433.965 28.3919H442.074Z" fill="#333333"/>
<path d="M400.62 18.2785C403.612 15.8043 406.656 14.5671 409.753 14.5671C412.902 14.5671 415.237 15.5878 416.76 17.629C418.334 19.6084 419.121 22.1754 419.121 25.33V48.8042H410.304V25.1445C410.304 21.9898 408.992 20.4125 406.367 20.4125C404.898 20.4125 403.454 20.9073 402.037 21.897C402.247 23.3816 402.352 24.5259 402.352 25.33V48.8042H393.613V25.1445C393.613 21.9898 392.327 20.4125 389.755 20.4125C388.286 20.4125 386.895 20.8455 385.583 21.7115V48.8042H376.765V15.4022H380.78L383.693 18.3713C386.895 15.8352 390.097 14.5671 393.298 14.5671C396.5 14.5671 398.941 15.8043 400.62 18.2785Z" fill="#333333"/>
<path d="M370.382 33.495H353.612C353.612 37.7011 354.006 40.6084 354.793 42.2166C355.581 43.763 356.814 44.5362 358.494 44.5362C361.328 44.5362 362.745 42.7115 362.745 39.062L369.988 39.2475C369.726 42.464 368.702 45.0001 366.918 46.8558C365.133 48.7114 362.01 49.6393 357.549 49.6393C353.14 49.6393 349.912 48.1857 347.865 45.2785C345.871 42.3712 344.874 37.9795 344.874 32.1032C344.874 20.4125 349.177 14.5671 357.785 14.5671C366.183 14.5671 370.382 20.5053 370.382 32.3816V33.495ZM361.879 28.3919C361.774 25.3609 361.407 23.1651 360.777 21.8042C360.199 20.3816 359.228 19.6702 357.864 19.6702C356.552 19.6702 355.581 20.2888 354.951 21.5259C354.373 22.7012 353.98 24.9898 353.77 28.3919H361.879Z" fill="#333333"/>
<path d="M340.909 19.3919H337.051C338.206 21.3094 338.783 23.9073 338.783 27.1857C338.783 30.4022 337.891 33.2166 336.107 35.629C334.322 37.9795 331.199 39.1548 326.738 39.1548C324.638 39.1548 322.854 38.8764 321.384 38.3197L319.81 40.0826C319.022 40.8249 318.629 41.5362 318.629 42.2166C318.629 43.1444 319.18 43.6084 320.282 43.6084H330.989C333.929 43.6084 336.238 44.5053 337.917 46.2991C339.597 48.031 340.437 50.2888 340.437 53.0723C340.437 59.6908 335.661 63.0001 326.108 63.0001C317.395 63.0001 313.039 60.1548 313.039 54.464C313.039 53.2269 313.433 52.0207 314.22 50.8455C315.06 49.6702 316.031 48.897 317.133 48.5259C314.771 47.8455 313.59 46.0517 313.59 43.1444C313.59 41.0413 314.377 39.0929 315.952 37.2991L317.527 35.5362C315.847 33.3713 315.007 30.5259 315.007 27.0001C315.007 23.4743 315.873 20.5362 317.605 18.1857C319.39 15.7733 322.434 14.5671 326.738 14.5671C328.627 14.5671 330.412 14.8455 332.092 15.4022H340.909V19.3919ZM323.353 26.8146C323.353 29.4125 323.589 31.2991 324.061 32.4743C324.534 33.5877 325.452 34.1444 326.817 34.1444C328.181 34.1444 329.126 33.5877 329.651 32.4743C330.176 31.3609 330.438 29.5053 330.438 26.9073C330.438 24.2475 330.176 22.3609 329.651 21.2475C329.126 20.1341 328.181 19.5774 326.817 19.5774C325.452 19.5774 324.534 20.1341 324.061 21.2475C323.589 22.3609 323.353 24.2166 323.353 26.8146ZM328.234 48.8042H322.723C321.306 50.3506 320.597 52.0826 320.597 54.0001C320.597 56.5362 322.434 57.8042 326.108 57.8042C330.622 57.8042 332.879 56.3506 332.879 53.4434C332.879 52.0207 332.459 50.8764 331.619 50.0104C330.832 49.2063 329.703 48.8042 328.234 48.8042Z" fill="#333333"/>
<path d="M299.556 44.9073C297.352 48.062 294.413 49.6393 290.739 49.6393C288.272 49.6393 286.277 48.8042 284.755 47.1341C283.286 45.4022 282.551 43.0826 282.551 40.1754C282.551 37.2682 283.417 35.0723 285.149 33.5877C286.881 32.0414 289.82 30.8352 293.967 29.9692L298.848 28.8558V25.5156C298.848 21.6187 297.667 19.6702 295.305 19.6702C292.681 19.6702 291.263 22.1754 291.054 27.1857L283.81 26.1651C284.125 22.2063 285.149 19.2991 286.881 17.4434C288.613 15.5259 291.5 14.5671 295.541 14.5671C303.571 14.5671 307.587 18.4331 307.587 26.1651V48.8042H301.761L299.556 44.9073ZM290.345 39.897C290.345 42.8042 291.683 44.2578 294.36 44.2578C295.777 44.2578 297.273 43.2682 298.848 41.2888V33.031L295.305 33.8661C291.998 34.7321 290.345 36.7424 290.345 39.897Z" fill="#333333"/>
<path d="M257.87 18.3713C261.071 15.8352 264.22 14.5671 267.317 14.5671C270.414 14.5671 272.697 15.5878 274.166 17.629C275.689 19.6084 276.45 22.1754 276.45 25.33V48.8042H267.711V26.629C267.711 24.464 267.475 22.8867 267.002 21.897C266.53 20.9073 265.559 20.4125 264.089 20.4125C262.672 20.4125 261.229 21.0001 259.759 22.1754V48.8042H250.941V15.4022H254.957L257.87 18.3713Z" fill="#333333"/>
<path d="M235.175 44.9073C232.971 48.062 230.032 49.6393 226.358 49.6393C223.891 49.6393 221.896 48.8042 220.374 47.1341C218.905 45.4022 218.17 43.0826 218.17 40.1754C218.17 37.2682 219.036 35.0723 220.768 33.5877C222.5 32.0414 225.439 30.8352 229.586 29.9692L234.467 28.8558V25.5156C234.467 21.6187 233.286 19.6702 230.924 19.6702C228.3 19.6702 226.883 22.1754 226.673 27.1857L219.43 26.1651C219.744 22.2063 220.768 19.2991 222.5 17.4434C224.232 15.5259 227.119 14.5671 231.16 14.5671C239.191 14.5671 243.206 18.4331 243.206 26.1651V48.8042H237.38L235.175 44.9073ZM225.964 39.897C225.964 42.8042 227.303 44.2578 229.979 44.2578C231.396 44.2578 232.892 43.2682 234.467 41.2888V33.031L230.924 33.8661C227.617 34.7321 225.964 36.7424 225.964 39.897Z" fill="#333333"/>
<path d="M203.488 48.8042L202.937 14.5671L195.457 48.8042H187.742L180.184 13.2681L179.712 48.8042H174.279L175.303 6.12378H186.561L192.859 36.5568L199.394 6.12378H211.361L212.384 48.8042H203.488Z" fill="#333333"/>
<path d="M155.676 32.1032C155.676 43.7939 151.189 49.6393 142.214 49.6393C133.291 49.6393 128.83 43.7939 128.83 32.1032C128.83 20.4125 133.291 14.5671 142.214 14.5671C151.189 14.5671 155.676 20.4125 155.676 32.1032ZM137.569 32.1032C137.569 36.4331 137.883 39.5877 138.513 41.5671C139.143 43.5465 140.377 44.5362 142.214 44.5362C144.103 44.5362 145.336 43.5774 145.914 41.6599C146.544 39.6805 146.859 36.495 146.859 32.1032C146.859 27.7115 146.544 24.5568 145.914 22.6393C145.336 20.6599 144.103 19.6702 142.214 19.6702C140.377 19.6702 139.143 20.6599 138.513 22.6393C137.883 24.6187 137.569 27.7733 137.569 32.1032Z" fill="#333333"/>
<path d="M126.559 15.4021L117.348 48.8041H107.507L98.374 15.4021H107.113L114.356 43.7011L121.599 15.4021H126.559Z" fill="#333333"/>
<path d="M93.3954 10.6701C92.3982 11.7835 91.1648 12.3402 89.6952 12.3402C88.278 12.3402 87.0446 11.7526 85.9949 10.5773C84.9976 9.3402 84.499 7.8866 84.499 6.2165C84.499 4.48454 84.9976 3.03093 85.9949 1.85568C86.9921 0.618563 88.2255 0 89.6952 0C91.1648 0 92.3982 0.618563 93.3954 1.85568C94.3927 3.03093 94.8913 4.51546 94.8913 6.30928C94.8913 8.04124 94.3927 9.49484 93.3954 10.6701ZM94.104 48.8041H85.2863V15.4021H94.104V48.8041Z" fill="#333333"/>
<path d="M80.8086 42.9587L81.9896 47.5979C79.8376 48.9587 77.4233 49.6391 74.7465 49.6391C72.1222 49.6391 70.1015 48.8041 68.6843 47.1339C67.4247 45.6494 66.7948 42.835 66.7948 38.6906V20.6907H62.5435V15.402H66.7948V10.8556L75.6125 7.32983V15.402H80.9661V20.6907H75.6125V40.7319C75.6125 42.8968 76.2948 43.9793 77.6595 43.9793C78.4992 43.9793 79.549 43.6391 80.8086 42.9587Z" fill="#333333"/>
<path d="M48.2219 19.6702C46.5948 19.6702 45.4663 20.5671 44.8365 22.3609C44.2067 24.0929 43.8918 27.3403 43.8918 32.1032C43.8918 36.8042 44.2067 40.0517 44.8365 41.8455C45.5188 43.6393 46.6473 44.5362 48.2219 44.5362C50.8462 44.5362 52.1846 41.7527 52.2371 36.1857L59.5589 36.5568C59.3489 40.9486 58.3517 44.2269 56.5672 46.3919C54.8351 48.5568 51.8959 49.6393 47.7495 49.6393C45.1777 49.6393 43.0257 49.1754 41.2937 48.2475C37.1998 46.0826 35.1528 40.7011 35.1528 32.1032C35.1528 26.9073 35.8876 22.8249 37.3572 19.8558C39.1418 16.33 42.6059 14.5671 47.7495 14.5671C51.8434 14.5671 54.7564 15.5878 56.4884 17.629C58.273 19.6702 59.2702 22.7939 59.4801 27.0001L52.2371 27.928C52.1846 22.4228 50.8462 19.6702 48.2219 19.6702Z" fill="#333333"/>
<path d="M20.942 37.0207H7.95164L4.95994 48.8042H0L11.0221 6.12378H21.3356L32.5151 48.8042H23.9337L20.942 37.0207ZM19.6823 32.0104L14.4862 11.3197L9.21131 32.0104H19.6823Z" fill="#333333"/>
</svg>
